<mxfile host="app.diagrams.net" modified="2023-08-03T10:13:18.061Z" agent="Mozilla/5.0 (Windows NT 10.0; Win64; x64) AppleWebKit/537.36 (KHTML, like Gecko) Chrome/115.0.0.0 Safari/537.36 Edg/115.0.1901.188" version="21.6.6" etag="9wlsSL6W2W4c7fgfHDI_" type="github">
  <diagram name="Page-1" id="9999X74ZkO2P16zYkS4h">
    <mxGraphModel>
      <root>
        <mxCell id="0" />
        <mxCell id="1" parent="0" />
      </root>
    </mxGraphModel>
  </diagram>
</mxfile>
